<mxfile host="app.diagrams.net" agent="Mozilla/5.0 (Windows NT 10.0; Win64; x64) AppleWebKit/537.36 (KHTML, like Gecko) Chrome/135.0.0.0 Safari/537.36 Edg/135.0.0.0" version="26.2.14">
  <diagram name="Página-1" id="s8oI4a1s0zw385i9X4hv">
    <mxGraphModel dx="1378" dy="834" grid="1" gridSize="10" guides="1" tooltips="1" connect="1" arrows="1" fold="1" page="1" pageScale="1" pageWidth="1169" pageHeight="827" math="0" shadow="0">
      <root>
        <mxCell id="0" />
        <mxCell id="1" parent="0" />
        <mxCell id="sbYPvFFO3f8_xraMxgZk-1" value="Actor" style="shape=umlActor;verticalLabelPosition=bottom;verticalAlign=top;html=1;outlineConnect=0;fontColor=#FFFFFF;" parent="1" vertex="1">
          <mxGeometry x="245" y="399" width="30" height="60" as="geometry" />
        </mxCell>
        <mxCell id="sbYPvFFO3f8_xraMxgZk-7" value="Administrador" style="text;html=1;align=center;verticalAlign=middle;whiteSpace=wrap;rounded=0;" parent="1" vertex="1">
          <mxGeometry x="230" y="459" width="60" height="30" as="geometry" />
        </mxCell>
        <mxCell id="sbYPvFFO3f8_xraMxgZk-8" value="Cadastrar Bombona" style="ellipse;whiteSpace=wrap;html=1;" parent="1" vertex="1">
          <mxGeometry x="460" y="199" width="120" height="80" as="geometry" />
        </mxCell>
        <mxCell id="sbYPvFFO3f8_xraMxgZk-9" value="Cadastrar Responsável" style="ellipse;whiteSpace=wrap;html=1;" parent="1" vertex="1">
          <mxGeometry x="460" y="299" width="120" height="80" as="geometry" />
        </mxCell>
        <mxCell id="sbYPvFFO3f8_xraMxgZk-10" value="Listar Bombonas" style="ellipse;whiteSpace=wrap;html=1;" parent="1" vertex="1">
          <mxGeometry x="460" y="399" width="120" height="80" as="geometry" />
        </mxCell>
        <mxCell id="sbYPvFFO3f8_xraMxgZk-11" value="Listar Responsáveis" style="ellipse;whiteSpace=wrap;html=1;" parent="1" vertex="1">
          <mxGeometry x="460" y="499" width="120" height="80" as="geometry" />
        </mxCell>
        <mxCell id="sbYPvFFO3f8_xraMxgZk-12" value="Gerar Relatório" style="ellipse;whiteSpace=wrap;html=1;" parent="1" vertex="1">
          <mxGeometry x="460" y="599" width="120" height="80" as="geometry" />
        </mxCell>
        <mxCell id="sbYPvFFO3f8_xraMxgZk-13" value="" style="endArrow=none;html=1;rounded=0;entryX=0;entryY=0.5;entryDx=0;entryDy=0;" parent="1" target="sbYPvFFO3f8_xraMxgZk-8" edge="1">
          <mxGeometry width="50" height="50" relative="1" as="geometry">
            <mxPoint x="280" y="429" as="sourcePoint" />
            <mxPoint x="350" y="379" as="targetPoint" />
          </mxGeometry>
        </mxCell>
        <mxCell id="sbYPvFFO3f8_xraMxgZk-14" value="" style="endArrow=none;html=1;rounded=0;entryX=0;entryY=0.5;entryDx=0;entryDy=0;" parent="1" target="sbYPvFFO3f8_xraMxgZk-9" edge="1">
          <mxGeometry width="50" height="50" relative="1" as="geometry">
            <mxPoint x="280" y="429" as="sourcePoint" />
            <mxPoint x="470" y="249" as="targetPoint" />
          </mxGeometry>
        </mxCell>
        <mxCell id="sbYPvFFO3f8_xraMxgZk-15" value="" style="endArrow=none;html=1;rounded=0;entryX=0;entryY=0.5;entryDx=0;entryDy=0;" parent="1" target="sbYPvFFO3f8_xraMxgZk-10" edge="1">
          <mxGeometry width="50" height="50" relative="1" as="geometry">
            <mxPoint x="280" y="429" as="sourcePoint" />
            <mxPoint x="470" y="349" as="targetPoint" />
          </mxGeometry>
        </mxCell>
        <mxCell id="sbYPvFFO3f8_xraMxgZk-16" value="" style="endArrow=none;html=1;rounded=0;entryX=0;entryY=0.375;entryDx=0;entryDy=0;entryPerimeter=0;" parent="1" target="sbYPvFFO3f8_xraMxgZk-11" edge="1">
          <mxGeometry width="50" height="50" relative="1" as="geometry">
            <mxPoint x="280" y="429" as="sourcePoint" />
            <mxPoint x="470" y="449" as="targetPoint" />
          </mxGeometry>
        </mxCell>
        <mxCell id="sbYPvFFO3f8_xraMxgZk-17" value="" style="endArrow=none;html=1;rounded=0;entryX=0;entryY=0.5;entryDx=0;entryDy=0;" parent="1" target="sbYPvFFO3f8_xraMxgZk-12" edge="1">
          <mxGeometry width="50" height="50" relative="1" as="geometry">
            <mxPoint x="280" y="429" as="sourcePoint" />
            <mxPoint x="470" y="539" as="targetPoint" />
          </mxGeometry>
        </mxCell>
        <mxCell id="sbYPvFFO3f8_xraMxgZk-18" value="Vincular Bombona a Responsável" style="ellipse;whiteSpace=wrap;html=1;" parent="1" vertex="1">
          <mxGeometry x="740" y="199" width="120" height="80" as="geometry" />
        </mxCell>
        <mxCell id="sbYPvFFO3f8_xraMxgZk-22" value="" style="endArrow=open;html=1;rounded=0;dashed=1;entryX=0;entryY=0.5;entryDx=0;entryDy=0;exitX=1;exitY=0.5;exitDx=0;exitDy=0;endFill=0;" parent="1" source="sbYPvFFO3f8_xraMxgZk-8" target="sbYPvFFO3f8_xraMxgZk-18" edge="1">
          <mxGeometry width="50" height="50" relative="1" as="geometry">
            <mxPoint x="750" y="579" as="sourcePoint" />
            <mxPoint x="800" y="529" as="targetPoint" />
          </mxGeometry>
        </mxCell>
        <mxCell id="sbYPvFFO3f8_xraMxgZk-23" value="&amp;lt;&amp;lt;include&amp;gt;&amp;gt;" style="edgeLabel;html=1;align=center;verticalAlign=middle;resizable=0;points=[];" parent="sbYPvFFO3f8_xraMxgZk-22" vertex="1" connectable="0">
          <mxGeometry x="-0.0125" relative="1" as="geometry">
            <mxPoint y="-9" as="offset" />
          </mxGeometry>
        </mxCell>
        <mxCell id="_KbZ97M_4ft6-HTJIuSo-1" value="" style="rounded=0;whiteSpace=wrap;html=1;fillColor=none;" vertex="1" parent="1">
          <mxGeometry x="350" y="69" width="590" height="690" as="geometry" />
        </mxCell>
        <mxCell id="_KbZ97M_4ft6-HTJIuSo-2" value="Sistema de Gerenciamento de Bombonas &lt;br&gt;de Resíduos Químicos" style="text;html=1;align=center;verticalAlign=middle;whiteSpace=wrap;rounded=0;fontSize=16;fontFamily=Helvetica;fontStyle=1" vertex="1" parent="1">
          <mxGeometry x="455" y="79" width="380" height="70" as="geometry" />
        </mxCell>
      </root>
    </mxGraphModel>
  </diagram>
</mxfile>
